<?xml version="1.0" standalone="no"?>
<!DOCTYPE svg PUBLIC "-//W3C//DTD SVG 20010904//EN"
 "http://www.w3.org/TR/2001/REC-SVG-20010904/DTD/svg10.dtd">
<svg version="1.0" xmlns="http://www.w3.org/2000/svg"
 width="225.000000pt" height="225.000000pt" viewBox="0 0 225.000000 225.000000"
 preserveAspectRatio="xMidYMid meet">

<g transform="translate(0.000000,225.000000) scale(0.100000,-0.100000)"
fill="#000000" stroke="none">
<path d="M1177 1462 c-65 -37 -119 -70 -120 -73 -1 -3 85 -157 192 -342 l195
-337 169 0 169 0 -35 63 c-131 233 -436 752 -443 754 -5 2 -62 -27 -127 -65z"/>
<path d="M883 1182 c-61 -37 -114 -69 -117 -72 -3 -3 46 -93 108 -200 l114
-195 171 -3 170 -2 -125 217 c-70 120 -140 242 -156 271 -16 28 -35 52 -41 51
-7 -1 -62 -31 -124 -67z"/>
<path d="M660 939 c-30 -18 -86 -49 -123 -71 l-68 -39 33 -60 33 -59 167 0
c93 0 168 3 168 6 0 9 -144 254 -150 254 -3 0 -30 -14 -60 -31z"/>
</g>
</svg>
